<svg width="1368" height="1091" xmlns="http://www.w3.org/2000/svg" xmlns:xlink="http://www.w3.org/1999/xlink" xml:space="preserve" overflow="hidden"><defs><clipPath id="clip0"><rect x="646" y="631" width="1368" height="1091"/></clipPath></defs><g clip-path="url(#clip0)" transform="translate(-646 -631)"><path d="M1926.5 944C1947.76 944 1965 961.237 1965 982.5L1965 1431.5C1965 1452.76 1947.76 1470 1926.5 1470L1926.5 1470C1905.24 1470 1888 1452.76 1888 1431.5L1888 982.5C1888 961.237 1905.24 944 1926.5 944Z" fill="#2F5597" fill-rule="evenodd"/><path d="M1596.5 1068C1617.76 1068 1635 1085.24 1635 1106.5L1635 1561.5C1635 1582.76 1617.76 1600 1596.5 1600L1596.5 1600C1575.24 1600 1558 1582.76 1558 1561.5L1558 1106.5C1558 1085.24 1575.24 1068 1596.5 1068Z" fill="#2F5597" fill-rule="evenodd"/><path d="M1904.1 962.039C1923.89 969.798 1933.65 992.135 1925.9 1011.93L1796.38 1342.43C1788.62 1362.22 1766.28 1371.98 1746.49 1364.22L1746.49 1364.22C1726.69 1356.47 1716.93 1334.13 1724.69 1314.33L1854.2 983.838C1861.96 964.041 1884.3 954.281 1904.1 962.039Z" fill="#2F5597" fill-rule="evenodd"/><path d="M1847.76 1471.12C1839.96 1451.34 1849.67 1428.98 1869.45 1421.17L1961.27 1384.96C1981.05 1377.16 2003.4 1386.87 2011.21 1406.65L2011.21 1406.65C2019.01 1426.42 2009.3 1448.78 1989.52 1456.59L1897.7 1492.8C1877.92 1500.61 1855.56 1490.9 1847.76 1471.12Z" fill="#2F5597" fill-rule="evenodd"/><path d="M0 0 314.929 122.864" stroke="#2F5597" stroke-width="20.625" stroke-miterlimit="8" fill="none" fill-rule="evenodd" transform="matrix(1 0 0 -1 993.5 839.364)"/><path d="M0 0 621.5 242.468" stroke="#2F5597" stroke-width="20.625" stroke-miterlimit="8" fill="none" fill-rule="evenodd" transform="matrix(1 0 0 -1 1305.5 1206.97)"/><path d="M0 0 621.5 242.468" stroke="#2F5597" stroke-width="20.625" stroke-miterlimit="8" fill="none" fill-rule="evenodd" transform="matrix(1 0 0 -1 999.5 1077.97)"/><path d="M1308.5 716.5 1927.34 958.968" stroke="#2F5597" stroke-width="20.625" stroke-miterlimit="8" fill="none" fill-rule="evenodd"/><path d="M994.5 839.5 1613.34 1081.97" stroke="#2F5597" stroke-width="20.625" stroke-miterlimit="8" fill="none" fill-rule="evenodd"/><path d="M1230.5 962C1230.5 920.303 1264.3 886.5 1306 886.5 1347.7 886.5 1381.5 920.303 1381.5 962 1381.5 1003.7 1347.7 1037.5 1306 1037.5 1264.3 1037.5 1230.5 1003.7 1230.5 962Z" stroke="#2F5597" stroke-width="20.625" stroke-miterlimit="8" fill="#FFFFFF" fill-rule="evenodd"/><path d="M1008.5 1085.5 1305.97 1202.05" stroke="#2F5597" stroke-width="20.625" stroke-miterlimit="8" fill="none" fill-rule="evenodd"/><path d="M1034.5 885.5 1267.49 1158.97" stroke="#2F5597" stroke-width="20.625" stroke-miterlimit="8" fill="none" fill-rule="evenodd"/><path d="M1342.5 760.5 1575.49 1033.97" stroke="#2F5597" stroke-width="20.625" stroke-miterlimit="8" fill="none" fill-rule="evenodd"/><path d="M0 0 231.458 270.417" stroke="#2F5597" stroke-width="20.625" stroke-miterlimit="8" fill="none" fill-rule="evenodd" transform="matrix(-1 0 0 1 1268.96 761.5)"/><path d="M0 0 231.458 270.417" stroke="#2F5597" stroke-width="20.625" stroke-miterlimit="8" fill="none" fill-rule="evenodd" transform="matrix(-1 0 0 1 1582.96 887.5)"/><path d="M1232.5 1192C1232.5 1150.85 1265.63 1117.5 1306.5 1117.5 1347.37 1117.5 1380.5 1150.85 1380.5 1192 1380.5 1233.15 1347.37 1266.5 1306.5 1266.5 1265.63 1266.5 1232.5 1233.15 1232.5 1192Z" stroke="#2F5597" stroke-width="20.625" stroke-miterlimit="8" fill="#2F5597" fill-rule="evenodd"/><path d="M1179 1357.5C1179 1336.24 1196.24 1319 1217.5 1319L1307.5 1319C1328.76 1319 1346 1336.24 1346 1357.5L1346 1357.5C1346 1378.76 1328.76 1396 1307.5 1396L1217.5 1396C1196.24 1396 1179 1378.76 1179 1357.5Z" fill="#2F5597" fill-rule="evenodd"/><path d="M1584.06 1055.42C1602.01 1044.02 1625.8 1049.33 1637.2 1067.28L1785.58 1300.84C1796.98 1318.79 1791.67 1342.58 1773.72 1353.98L1773.72 1353.98C1755.78 1365.38 1731.98 1360.07 1720.58 1342.13L1572.21 1108.57C1560.81 1090.62 1566.11 1066.83 1584.06 1055.42Z" fill="#2F5597" fill-rule="evenodd"/><path d="M1517.48 1603.2C1509.68 1583.43 1519.39 1561.07 1539.17 1553.26L1630.98 1517.05C1650.76 1509.24 1673.12 1518.95 1680.92 1538.73L1680.92 1538.73C1688.73 1558.51 1679.02 1580.87 1659.24 1588.68L1567.42 1624.89C1547.64 1632.69 1525.28 1622.98 1517.48 1603.2Z" fill="#2F5597" fill-rule="evenodd"/><path d="M1182 1683.5C1182 1662.24 1199.24 1645 1220.5 1645L1398.5 1645C1419.76 1645 1437 1662.24 1437 1683.5L1437 1683.5C1437 1704.76 1419.76 1722 1398.5 1722L1220.5 1722C1199.24 1722 1182 1704.76 1182 1683.5Z" fill="#2F5597" fill-rule="evenodd"/><path d="M783.168 997.962C790.866 978.142 813.174 968.314 832.995 976.012L970.264 1029.32C990.085 1037.02 999.912 1059.33 992.214 1079.15L992.214 1079.15C984.516 1098.97 962.208 1108.8 942.387 1101.1L805.119 1047.79C785.298 1040.09 775.47 1017.78 783.168 997.962Z" fill="#2F5597" fill-rule="evenodd"/><path d="M738.835 1223.54C746.533 1203.72 768.841 1193.89 788.661 1201.59L937.635 1259.45C957.455 1267.15 967.283 1289.45 959.585 1309.27L959.585 1309.27C951.887 1329.09 929.579 1338.92 909.758 1331.22L760.785 1273.37C740.964 1265.67 731.137 1243.36 738.835 1223.54Z" fill="#2F5597" fill-rule="evenodd"/><path d="M649.108 1426.29C656.806 1406.47 679.114 1396.64 698.935 1404.34L905.269 1484.47C925.09 1492.17 934.917 1514.48 927.219 1534.3L927.219 1534.3C919.521 1554.12 897.213 1563.95 877.393 1556.25L671.058 1476.11C651.238 1468.42 641.41 1446.11 649.108 1426.29Z" fill="#2F5597" fill-rule="evenodd"/><path d="M650.005 1104.7C649.35 1029.32 709.258 967.668 783.814 967.005 801.049 966.852 818.154 970.037 834.204 976.389L806.514 1047.92C776.589 1035.73 742.698 1050.74 730.817 1081.43 728.035 1088.62 726.639 1096.29 726.704 1104.02Z" fill="#2F5597" fill-rule="evenodd"/><path d="M185.539 0.000406824C262.131-0.189529 331.009 46.5911 359.069 117.859L287.446 146.058C270.999 104.284 230.625 76.8632 185.73 76.9746Z" fill="#2F5597" fill-rule="evenodd" transform="matrix(1.83697e-16 1 1 -1.83697e-16 650 917)"/><path d="M187.025 0.00285542C264.385 0.430568 333.403 48.8253 360.351 121.536L288.646 148.253C272.803 105.343 232.162 76.7749 186.605 76.522Z" fill="#2F5597" fill-rule="evenodd" transform="matrix(-1.83697e-16 -1 -1 1.83697e-16 1056 1619)"/><path d="M1055.99 1425.29C1056.66 1500.68 996.312 1562.33 921.204 1562.99 904.342 1563.14 887.6 1560.15 871.831 1554.15L899.034 1482.06C929.462 1493.74 963.515 1478.33 975.094 1447.64 977.704 1440.73 979.011 1433.38 978.946 1425.98Z" fill="#2F5597" fill-rule="evenodd"/><path d="M1852.5 964C1852.5 922.303 1886.3 888.5 1928 888.5 1969.7 888.5 2003.5 922.303 2003.5 964 2003.5 1005.7 1969.7 1039.5 1928 1039.5 1886.3 1039.5 1852.5 1005.7 1852.5 964Z" stroke="#2F5597" stroke-width="20.625" stroke-miterlimit="8" fill="#FFFFFF" fill-rule="evenodd"/><path d="M1542.5 841.5C1542.5 800.079 1576.08 766.5 1617.5 766.5 1658.92 766.5 1692.5 800.079 1692.5 841.5 1692.5 882.921 1658.92 916.5 1617.5 916.5 1576.08 916.5 1542.5 882.921 1542.5 841.5Z" stroke="#2F5597" stroke-width="20.625" stroke-miterlimit="8" fill="#FFFFFF" fill-rule="evenodd"/><path d="M1541.5 1082.5C1541.5 1041.08 1575.3 1007.5 1617 1007.5 1658.7 1007.5 1692.5 1041.08 1692.5 1082.5 1692.5 1123.92 1658.7 1157.5 1617 1157.5 1575.3 1157.5 1541.5 1123.92 1541.5 1082.5Z" stroke="#2F5597" stroke-width="20.625" stroke-miterlimit="8" fill="#FFFFFF" fill-rule="evenodd"/><path d="M1230.5 716.5C1230.5 675.079 1264.3 641.5 1306 641.5 1347.7 641.5 1381.5 675.079 1381.5 716.5 1381.5 757.921 1347.7 791.5 1306 791.5 1264.3 791.5 1230.5 757.921 1230.5 716.5Z" stroke="#2F5597" stroke-width="20.625" stroke-miterlimit="8" fill="#FFFFFF" fill-rule="evenodd"/><path d="M922.5 840.5C922.5 799.079 956.303 765.5 998 765.5 1039.7 765.5 1073.5 799.079 1073.5 840.5 1073.5 881.921 1039.7 915.5 998 915.5 956.303 915.5 922.5 881.921 922.5 840.5Z" stroke="#2F5597" stroke-width="20.625" stroke-miterlimit="8" fill="#FFFFFF" fill-rule="evenodd"/><path d="M922.5 1081C922.5 1039.3 956.079 1005.5 997.5 1005.5 1038.92 1005.5 1072.5 1039.3 1072.5 1081 1072.5 1122.7 1038.92 1156.5 997.5 1156.5 956.079 1156.5 922.5 1122.7 922.5 1081Z" stroke="#2F5597" stroke-width="20.625" stroke-miterlimit="8" fill="#FFFFFF" fill-rule="evenodd"/><path d="M1303.5 1320C1330.84 1320 1353 1342.16 1353 1369.5L1353 1666.5C1353 1693.84 1330.84 1716 1303.5 1716L1303.5 1716C1276.16 1716 1254 1693.84 1254 1666.5L1254 1369.5C1254 1342.16 1276.16 1320 1303.5 1320Z" fill="#2F5597" fill-rule="evenodd"/></g></svg>